<svg width="125" height="48" viewBox="0 0 125 48" fill="none" xmlns="http://www.w3.org/2000/svg">
  <path d="M43.1475 13.377H31.4754C31.4754 13.377 31.2457 15.4519 31.2276 16.7869C31.2053 18.4285 31.166 19.3712 31.4754 20.9836C31.8555 22.9649 32.2391 24.089 33.2481 25.8361C34.3285 27.7069 35.2373 28.598 36.8524 30.0328C38.5091 31.5045 39.5738 32.2259 41.5737 33.1803C43.606 34.1501 44.8524 34.4918 47.0819 34.8852C52.1337 35.7767 76.459 35.1475 76.459 35.1475V13.377H53.9016L47.7377 20.9836H65.7049V26.0983C59.6101 26.0983 49.9672 26.0983 49.9672 26.0983C49.9672 26.0983 48.1926 25.9369 47.2131 25.5738C46.1588 25.1829 45.6167 24.9424 44.7213 24.2623C44.0573 23.758 43.7835 23.352 43.2787 22.6885C42.5415 21.7197 42.2469 20.9881 41.9672 19.8033C41.7307 18.8014 41.7437 18.2056 41.836 17.1803C41.9118 16.339 42.0747 15.8768 42.3606 15.082C42.6089 14.3919 43.1475 13.377 43.1475 13.377Z" fill="#5751E1"/>
  <path d="M76.459 35.1475H111.869C111.869 35.1475 114.897 34.9578 116.721 34.3606C118.289 33.8476 119.213 33.5251 120.524 32.5246C121.823 31.5337 122.494 30.8095 123.279 29.377C124.097 27.8839 124.399 26.9687 124.59 25.3115C124.767 23.7817 124.715 22.8119 124.328 21.377C124.065 20.403 123.818 19.8689 123.279 19.0164C122.465 17.7311 121.772 17.1332 120.524 16.2623C119.19 15.3303 118.292 14.9829 116.721 14.5574C114.886 14.0604 111.869 14.1639 111.869 14.1639H90.8852C90.8852 14.1639 90.2092 14.0994 89.836 13.9016C89.5462 13.7481 89.1803 13.377 89.1803 13.377H78.0327C78.0327 13.377 78.3359 14.6926 78.6885 15.4754C79.0853 16.3565 79.3719 16.8393 79.9999 17.5738C80.952 18.687 81.7183 19.1244 83.0163 19.8033C84.265 20.4564 85.0446 20.706 86.4262 20.9836C87.4854 21.1964 89.1803 21.2459 89.1803 21.2459H111.869C111.869 21.2459 112.977 21.5277 113.443 22.0328C113.894 22.5222 114.064 22.9416 114.098 23.6065C114.138 24.3669 113.959 24.8833 113.443 25.4426C112.976 25.9474 111.869 26.2295 111.869 26.2295H83.5409L76.459 35.1475Z" fill="#5751E1"/>
  <path d="M16.2623 9.04917V34.8852H27.1475V9.04917H116.459L123.279 0H6.95081L0 9.04917H16.2623Z" fill="#5751E1"/>
  <path d="M19.0474 47.9233H18.0896V42.981H16.2623L16.3892 42.3062H20.9325L20.8055 42.981H19.0474V47.9233ZM21.7789 47.9233V42.3062H25.2066L25.0796 42.981H22.733V44.6758H24.8103L24.6872 45.3315H22.733V47.2485H25.2604L25.1334 47.9233H21.7789ZM30.6924 47.3904C30.5566 47.5079 30.4051 47.6063 30.2386 47.6856C30.0745 47.7623 29.9064 47.8249 29.7346 47.8736C29.5652 47.9194 29.3972 47.9513 29.2307 47.9694C29.0665 47.9898 28.9176 48 28.7842 48C28.4074 48 28.056 47.9348 27.7303 47.8045C27.4071 47.6741 27.1263 47.4901 26.8879 47.2524C26.6494 47.0121 26.4622 46.7232 26.3261 46.3858C26.1903 46.0458 26.1223 45.6689 26.1223 45.2548C26.1223 44.9378 26.162 44.6439 26.2416 44.3729C26.3211 44.0994 26.4314 43.8513 26.5725 43.6291C26.7135 43.404 26.8813 43.2048 27.0764 43.031C27.2713 42.8572 27.484 42.7114 27.7148 42.5938C27.9457 42.4737 28.1907 42.3829 28.4496 42.3216C28.7086 42.2601 28.9741 42.2295 29.2459 42.2295C29.3331 42.2295 29.4318 42.2334 29.5421 42.241C29.6524 42.2486 29.7704 42.2614 29.8961 42.2795C30.0217 42.2947 30.1514 42.3164 30.2846 42.3447C30.4206 42.3701 30.5577 42.4033 30.6963 42.4441L30.5424 43.188L30.4655 43.2265C30.1987 43.1037 29.9487 43.0194 29.7152 42.9734C29.4846 42.9273 29.2845 42.9043 29.1151 42.9043C28.8228 42.9043 28.5536 42.9606 28.3073 43.0731C28.0612 43.183 27.8496 43.3351 27.6726 43.5293C27.4956 43.7235 27.3572 43.9536 27.2571 44.2196C27.1597 44.4826 27.1108 44.7664 27.1108 45.0708C27.1108 45.3697 27.157 45.6534 27.2495 45.922C27.3417 46.1903 27.4764 46.4266 27.6534 46.631C27.8328 46.8331 28.052 46.9941 28.3112 47.1142C28.5702 47.2344 28.8677 47.2946 29.2036 47.2946C29.4166 47.2946 29.6498 47.265 29.9038 47.2064C30.1577 47.1475 30.4206 47.0415 30.6924 46.8881V47.3904ZM31.7812 47.9233V42.3062H32.7353V44.6643H35.5359V42.3062H36.4899V47.9233H35.5359V45.3391H32.7353V47.9233H31.7812ZM42.4529 47.628C42.0937 47.766 41.7528 47.8633 41.4295 47.9194C41.1065 47.973 40.8063 48 40.5293 48C40.0781 48 39.6742 47.9361 39.3175 47.8084C38.9635 47.6778 38.6623 47.4951 38.4136 47.26C38.1647 47.0224 37.975 46.736 37.8443 46.4012C37.7135 46.0662 37.6481 45.6929 37.6481 45.2815C37.6481 44.9595 37.6877 44.6603 37.7673 44.3842C37.8469 44.1083 37.9569 43.8578 38.0982 43.6327C38.2392 43.4053 38.4084 43.2048 38.6059 43.031C38.8033 42.8572 39.02 42.7114 39.2561 42.5938C39.4919 42.4737 39.7432 42.3829 40.0101 42.3216C40.2766 42.2601 40.5511 42.2295 40.8334 42.2295C40.9255 42.2295 41.0282 42.2334 41.1409 42.241C41.2538 42.2486 41.373 42.2614 41.4988 42.2795C41.627 42.2947 41.7591 42.3164 41.8951 42.3447C42.0309 42.3701 42.1683 42.4033 42.3067 42.4441L42.1567 43.1843L42.0798 43.2226C41.8103 43.0972 41.5577 43.0129 41.3218 42.9695C41.0857 42.926 40.882 42.9043 40.7102 42.9043C40.3972 42.9043 40.1138 42.9606 39.8601 43.0731C39.6062 43.183 39.3882 43.3364 39.2059 43.5333C39.0239 43.7275 38.8829 43.9589 38.7829 44.2272C38.6854 44.4931 38.6366 44.7831 38.6366 45.0975C38.6366 45.3966 38.6815 45.6804 38.7713 45.9487C38.8637 46.217 38.9969 46.4536 39.1713 46.658C39.3459 46.8624 39.5586 47.0247 39.8099 47.1449C40.0613 47.265 40.3486 47.3252 40.6716 47.3252C40.8076 47.3252 40.9563 47.3137 41.118 47.2906C41.2822 47.2676 41.4437 47.2307 41.6026 47.1794V45.2393H42.4529V47.628ZM43.8301 47.9233V42.3062H47.2578L47.1309 42.981H44.7842V44.6758H46.8615L46.7386 45.3315H44.7842V47.2485H47.3116L47.1848 47.9233H43.8301ZM48.412 47.9233V42.3062H49.7584L52.1551 45.8835L52.5514 46.6234H52.6283L52.5781 45.7877V42.3062H53.3978V47.9233H52.5012L49.62 43.6406L49.2584 42.9312H49.1815L49.2313 43.7479V47.9233H48.412ZM55.7561 47.9233H54.802V42.3062H55.7561V47.9233ZM58.0989 42.3062V45.8222C58.0989 46.0803 58.1385 46.3039 58.2181 46.4931C58.3003 46.6823 58.4067 46.8381 58.5375 46.9608C58.6709 47.0836 58.8208 47.1757 58.9876 47.237C59.1543 47.2959 59.3222 47.3252 59.4915 47.3252C59.6659 47.3252 59.8301 47.2946 59.984 47.2331C60.1405 47.1718 60.2762 47.081 60.3918 46.9608C60.5071 46.8407 60.5982 46.6899 60.6649 46.5085C60.734 46.3269 60.7687 46.1149 60.7687 45.872V42.3062H61.592V45.8183C61.592 45.9921 61.5715 46.1672 61.5305 46.3436C61.4919 46.5174 61.4318 46.685 61.3496 46.8459C61.2676 47.0069 61.1636 47.1577 61.0381 47.2982C60.9149 47.4388 60.7687 47.5616 60.5995 47.6665C60.4301 47.7686 60.2379 47.8505 60.0223 47.9118C59.8096 47.9707 59.5735 48 59.3145 48C58.9915 48 58.6963 47.9526 58.4298 47.8581C58.163 47.761 57.9334 47.6191 57.7412 47.4325C57.5513 47.2459 57.404 47.0171 57.2987 46.7462C57.1963 46.4727 57.1448 46.1596 57.1448 45.8068V42.3062H58.0989ZM64.4582 47.3252C64.6121 47.3252 64.7541 47.3061 64.8852 47.2676C65.0183 47.2268 65.1339 47.1705 65.2313 47.099C65.3287 47.0247 65.4044 46.9355 65.4582 46.8305C65.5147 46.7232 65.5428 46.603 65.5428 46.4701C65.5428 46.3117 65.5044 46.1774 65.4275 46.0675C65.3532 45.9576 65.2531 45.8618 65.1273 45.7801C65.0018 45.6956 64.8594 45.6202 64.7003 45.5537C64.5414 45.4872 64.3786 45.4197 64.2118 45.3506C64.0477 45.2815 63.8862 45.2061 63.727 45.1244C63.5682 45.0399 63.4258 44.9404 63.3 44.8252C63.1745 44.7077 63.0731 44.5685 62.9962 44.4072C62.9219 44.2463 62.8846 44.052 62.8846 43.8246C62.8846 43.5767 62.9321 43.3542 63.0269 43.1574C63.122 42.9606 63.2551 42.793 63.4271 42.6551C63.5989 42.5172 63.804 42.4122 64.0427 42.3407C64.2812 42.2667 64.544 42.2295 64.8311 42.2295C64.9159 42.2295 65.0133 42.2334 65.1236 42.241C65.2339 42.2486 65.3519 42.2614 65.4774 42.2795C65.6032 42.2947 65.734 42.3164 65.87 42.3447C66.0084 42.3701 66.1468 42.4033 66.2855 42.4441L66.1352 43.188L66.0622 43.2265C65.9262 43.165 65.7941 43.1139 65.6659 43.0731C65.5378 43.032 65.4159 42.999 65.3006 42.9734C65.1851 42.9477 65.0774 42.9299 64.9774 42.9197C64.8799 42.9095 64.7941 42.9043 64.7197 42.9043C64.5787 42.9043 64.4503 42.921 64.335 42.9543C64.2194 42.9875 64.1207 43.0359 64.0388 43.0998C63.9592 43.1637 63.8964 43.243 63.8502 43.3375C63.8066 43.4296 63.7848 43.5356 63.7848 43.6558C63.7848 43.817 63.8234 43.9549 63.9004 44.0698C63.9773 44.1824 64.0771 44.2821 64.2003 44.369C64.3261 44.4559 64.4684 44.5339 64.6273 44.6028C64.7888 44.6692 64.9529 44.7383 65.1197 44.8098C65.2891 44.8789 65.4532 44.9543 65.6121 45.0362C65.7736 45.1179 65.916 45.215 66.0391 45.3275C66.1649 45.4401 66.266 45.5731 66.343 45.7262C66.4199 45.8772 66.4585 46.0586 66.4585 46.2709C66.4585 46.5085 66.4084 46.7321 66.3083 46.9417C66.2085 47.1514 66.0662 47.3354 65.8813 47.4938C65.6993 47.6498 65.48 47.7738 65.2237 47.8657C64.9671 47.9552 64.6811 48 64.3657 48C64.2376 48 64.1028 47.9911 63.9618 47.973C63.8208 47.9578 63.6771 47.9348 63.5309 47.9042C63.3849 47.8736 63.2399 47.8351 63.0962 47.789C62.9526 47.7432 62.8142 47.6906 62.6808 47.632L62.8347 46.8805L62.9116 46.842C63.1834 46.9904 63.4489 47.1079 63.7079 47.1948C63.9668 47.2817 64.2171 47.3252 64.4582 47.3252ZM68.0513 48C67.9615 48 67.8769 47.9822 67.7973 47.9463C67.7204 47.9131 67.6524 47.8683 67.5936 47.812C67.5371 47.7534 67.4922 47.6856 67.4588 47.6089C67.4255 47.5296 67.4087 47.4466 67.4087 47.3597C67.4087 47.2702 67.4255 47.1859 67.4588 47.1066C67.4948 47.0247 67.5421 46.9546 67.6012 46.8957C67.6603 46.8344 67.728 46.787 67.805 46.7538C67.8845 46.7182 67.9691 46.7001 68.0589 46.7001C68.1487 46.7001 68.232 46.7182 68.3089 46.7538C68.3885 46.787 68.4565 46.8344 68.513 46.8957C68.5718 46.9546 68.618 47.0234 68.6514 47.1027C68.6847 47.182 68.7013 47.2663 68.7013 47.3558C68.7013 47.4453 68.6834 47.5296 68.6474 47.6089C68.6141 47.6856 68.5681 47.7534 68.509 47.812C68.45 47.8683 68.3809 47.9131 68.3013 47.9463C68.2244 47.9822 68.1411 48 68.0513 48ZM71.4291 47.3252C71.583 47.3252 71.7253 47.3061 71.8561 47.2676C71.9893 47.2268 72.1048 47.1705 72.2022 47.099C72.2997 47.0247 72.3753 46.9355 72.4291 46.8305C72.4856 46.7232 72.514 46.603 72.514 46.4701C72.514 46.3117 72.4754 46.1774 72.3984 46.0675C72.3241 45.9576 72.224 45.8618 72.0985 45.7801C71.9727 45.6956 71.8304 45.6202 71.6715 45.5537C71.5123 45.4872 71.3495 45.4197 71.1828 45.3506C71.0186 45.2815 70.8571 45.2061 70.698 45.1244C70.5391 45.0399 70.3967 44.9404 70.2712 44.8252C70.1454 44.7077 70.044 44.5685 69.9671 44.4072C69.8928 44.2463 69.8555 44.052 69.8555 43.8246C69.8555 43.5767 69.903 43.3542 69.9978 43.1574C70.0929 42.9606 70.2263 42.793 70.398 42.6551C70.5698 42.5172 70.7749 42.4122 71.0136 42.3407C71.2521 42.2667 71.515 42.2295 71.8023 42.2295C71.8868 42.2295 71.9843 42.2334 72.0946 42.241C72.2049 42.2486 72.3228 42.2614 72.4486 42.2795C72.5741 42.2947 72.7049 42.3164 72.8409 42.3447C72.9793 42.3701 73.1177 42.4033 73.2564 42.4441L73.1062 43.188L73.0331 43.2265C72.8974 43.165 72.7653 43.1139 72.6369 43.0731C72.5087 43.032 72.3869 42.999 72.2716 42.9734C72.156 42.9477 72.0483 42.9299 71.9483 42.9197C71.8508 42.9095 71.765 42.9043 71.6907 42.9043C71.5496 42.9043 71.4212 42.921 71.3059 42.9543C71.1904 42.9875 71.0919 43.0359 71.0097 43.0998C70.9301 43.1637 70.8673 43.243 70.8211 43.3375C70.7775 43.4296 70.7557 43.5356 70.7557 43.6558C70.7557 43.817 70.7943 43.9549 70.8713 44.0698C70.9482 44.1824 71.0483 44.2821 71.1712 44.369C71.297 44.4559 71.4393 44.5339 71.5982 44.6028C71.7597 44.6692 71.9239 44.7383 72.0906 44.8098C72.26 44.8789 72.4241 44.9543 72.583 45.0362C72.7445 45.1179 72.8869 45.215 73.01 45.3275C73.1358 45.4401 73.2369 45.5731 73.3139 45.7262C73.3908 45.8772 73.4294 46.0586 73.4294 46.2709C73.4294 46.5085 73.3793 46.7321 73.2795 46.9417C73.1794 47.1514 73.0371 47.3354 72.8525 47.4938C72.6702 47.6498 72.4509 47.7738 72.1946 47.8657C71.938 47.9552 71.6521 48 71.3366 48C71.2085 48 71.0738 47.9911 70.9327 47.973C70.7917 47.9578 70.6481 47.9348 70.5018 47.9042C70.3558 47.8736 70.2108 47.8351 70.0672 47.789C69.9235 47.7432 69.7851 47.6906 69.6517 47.632L69.8056 46.8805L69.8825 46.842C70.1543 46.9904 70.4198 47.1079 70.6788 47.1948C70.938 47.2817 71.188 47.3252 71.4291 47.3252ZM77.1725 47.3252C77.4496 47.3252 77.7009 47.2676 77.9268 47.1527C78.1524 47.0375 78.3446 46.8818 78.5037 46.685C78.6652 46.4855 78.7897 46.2528 78.8769 45.9871C78.9641 45.7212 79.0077 45.4375 79.0077 45.1359C79.0077 44.8163 78.9588 44.5211 78.8614 44.2502C78.7666 43.9767 78.6345 43.7403 78.4651 43.5408C78.296 43.3414 78.0959 43.1854 77.865 43.0731C77.6342 42.9606 77.3842 42.9043 77.115 42.9043C76.8353 42.9043 76.5827 42.9632 76.3571 43.0807C76.1315 43.1982 75.939 43.3581 75.7801 43.56C75.621 43.7594 75.4978 43.9918 75.4106 44.2578C75.3261 44.5237 75.2838 44.8061 75.2838 45.1051C75.2838 45.4246 75.3313 45.7199 75.4261 45.9908C75.5209 46.2617 75.6517 46.4957 75.8185 46.6926C75.9879 46.8894 76.1877 47.0441 76.4185 47.1564C76.6494 47.2689 76.9007 47.3252 77.1725 47.3252ZM77.0417 48C76.793 48 76.552 47.972 76.3185 47.9157C76.0853 47.8568 75.866 47.7738 75.6609 47.6665C75.4582 47.5566 75.2722 47.4223 75.1031 47.2637C74.9363 47.1053 74.7914 46.9239 74.6682 46.7192C74.5477 46.5148 74.4542 46.29 74.3875 46.0445C74.3208 45.7966 74.2874 45.5307 74.2874 45.2469C74.2874 44.953 74.3234 44.6745 74.3951 44.4112C74.467 44.1478 74.5671 43.9049 74.6953 43.6827C74.826 43.4602 74.9826 43.2597 75.1646 43.0807C75.3465 42.8993 75.5467 42.7459 75.7646 42.6205C75.9852 42.4954 76.2211 42.3994 76.4724 42.3331C76.7237 42.264 76.9855 42.2295 77.2574 42.2295C77.624 42.2295 77.9727 42.2921 78.3036 42.4174C78.6371 42.5402 78.9294 42.7203 79.1808 42.9579C79.4321 43.1932 79.6322 43.4806 79.7808 43.8207C79.9295 44.1607 80.0041 44.5467 80.0041 44.9786C80.0041 45.27 79.9681 45.5474 79.8964 45.8107C79.8271 46.074 79.7283 46.318 79.6002 46.5431C79.4717 46.7653 79.3178 46.9674 79.1385 47.1488C78.9588 47.3278 78.7587 47.4812 78.5384 47.6089C78.3204 47.734 78.0843 47.8312 77.8304 47.9003C77.5791 47.9667 77.3162 48 77.0417 48ZM81.1619 47.9233V42.3062H82.116V47.2485H84.3743L84.2472 47.9233H81.1619ZM86.2441 42.3062V45.8222C86.2441 46.0803 86.2838 46.3039 86.3633 46.4931C86.4453 46.6823 86.5516 46.8381 86.6827 46.9608C86.8158 47.0836 86.966 47.1757 87.1326 47.237C87.2993 47.2959 87.4674 47.3252 87.6365 47.3252C87.8109 47.3252 87.975 47.2946 88.1289 47.2331C88.2854 47.1718 88.4215 47.081 88.5368 46.9608C88.6523 46.8407 88.7432 46.6899 88.8099 46.5085C88.8792 46.3269 88.9139 46.1149 88.9139 45.872V42.3062H89.7369V45.8183C89.7369 45.9921 89.7164 46.1672 89.6755 46.3436C89.6371 46.5174 89.5767 46.685 89.4948 46.8459C89.4126 47.0069 89.3089 47.1577 89.1831 47.2982C89.0599 47.4388 88.9139 47.5616 88.7445 47.6665C88.5754 47.7686 88.3829 47.8505 88.1675 47.9118C87.9545 47.9707 87.7187 48 87.4598 48C87.1365 48 86.8416 47.9526 86.5748 47.8581C86.3082 47.761 86.0787 47.6191 85.8862 47.4325C85.6966 47.2459 85.549 47.0171 85.4439 46.7462C85.3412 46.4727 85.29 46.1596 85.29 45.8068V42.3062H86.2441ZM93.3303 47.9233H92.3723V42.981H90.545L90.6721 42.3062H95.2151L95.0883 42.981H93.3303V47.9233ZM97.0156 47.9233H96.0618V42.3062H97.0156V47.9233ZM101.059 47.3252C101.336 47.3252 101.587 47.2676 101.813 47.1527C102.039 47.0375 102.231 46.8818 102.39 46.685C102.552 46.4855 102.676 46.2528 102.763 45.9871C102.85 45.7212 102.894 45.4375 102.894 45.1359C102.894 44.8163 102.845 44.5211 102.748 44.2502C102.653 43.9767 102.521 43.7403 102.351 43.5408C102.182 43.3414 101.982 43.1854 101.751 43.0731C101.521 42.9606 101.271 42.9043 101.001 42.9043C100.722 42.9043 100.469 42.9632 100.243 43.0807C100.018 43.1982 99.8254 43.3581 99.6665 43.56C99.5073 43.7594 99.3844 43.9918 99.297 44.2578C99.2124 44.5237 99.1701 44.8061 99.1701 45.1051C99.1701 45.4246 99.2177 45.7199 99.3125 45.9908C99.4073 46.2617 99.5381 46.4957 99.7048 46.6926C99.8742 46.8894 100.074 47.0441 100.305 47.1564C100.536 47.2689 100.787 47.3252 101.059 47.3252ZM100.928 48C100.679 48 100.438 47.972 100.205 47.9157C99.9717 47.8568 99.7524 47.7738 99.5473 47.6665C99.3445 47.5566 99.1586 47.4223 98.9895 47.2637C98.8227 47.1053 98.6777 46.9239 98.5546 46.7192C98.434 46.5148 98.3405 46.29 98.2738 46.0445C98.2071 45.7966 98.1738 45.5307 98.1738 45.2469C98.1738 44.953 98.2098 44.6745 98.2814 44.4112C98.3534 44.1478 98.4535 43.9049 98.5816 43.6827C98.7124 43.4602 98.8689 43.2597 99.0509 43.0807C99.2329 42.8993 99.433 42.7459 99.651 42.6205C99.8716 42.4954 100.107 42.3994 100.359 42.3331C100.61 42.264 100.872 42.2295 101.144 42.2295C101.51 42.2295 101.859 42.2921 102.19 42.4174C102.524 42.5402 102.816 42.7203 103.067 42.9579C103.318 43.1932 103.519 43.4806 103.667 43.8207C103.816 44.1607 103.89 44.5467 103.89 44.9786C103.89 45.27 103.854 45.5474 103.783 45.8107C103.713 46.074 103.615 46.318 103.487 46.5431C103.358 46.7653 103.204 46.9674 103.025 47.1488C102.845 47.3278 102.645 47.4812 102.425 47.6089C102.207 47.734 101.971 47.8312 101.717 47.9003C101.465 47.9667 101.203 48 100.928 48ZM105.018 47.9233V42.3062H106.364L108.761 45.8835L109.157 46.6234H109.234L109.184 45.7877V42.3062H110.003V47.9233H109.107L106.226 43.6406L105.864 42.9312H105.787L105.837 43.7479V47.9233H105.018ZM112.885 47.3252C113.039 47.3252 113.181 47.3061 113.312 47.2676C113.445 47.2268 113.561 47.1705 113.658 47.099C113.755 47.0247 113.831 46.9355 113.885 46.8305C113.941 46.7232 113.97 46.603 113.97 46.4701C113.97 46.3117 113.931 46.1774 113.854 46.0675C113.78 45.9576 113.68 45.8618 113.554 45.7801C113.428 45.6956 113.286 45.6202 113.127 45.5537C112.968 45.4872 112.805 45.4197 112.638 45.3506C112.474 45.2815 112.313 45.2061 112.154 45.1244C111.995 45.0399 111.852 44.9404 111.727 44.8252C111.601 44.7077 111.5 44.5685 111.423 44.4072C111.349 44.2463 111.311 44.052 111.311 43.8246C111.311 43.5767 111.359 43.3542 111.454 43.1574C111.549 42.9606 111.682 42.793 111.854 42.6551C112.026 42.5172 112.231 42.4122 112.469 42.3407C112.708 42.2667 112.971 42.2295 113.258 42.2295C113.343 42.2295 113.44 42.2334 113.55 42.241C113.661 42.2486 113.779 42.2614 113.904 42.2795C114.03 42.2947 114.161 42.3164 114.297 42.3447C114.435 42.3701 114.574 42.4033 114.712 42.4441L114.562 43.188L114.489 43.2265C114.353 43.165 114.221 43.1139 114.093 43.0731C113.964 43.032 113.843 42.999 113.727 42.9734C113.612 42.9477 113.504 42.9299 113.404 42.9197C113.307 42.9095 113.221 42.9043 113.146 42.9043C113.005 42.9043 112.877 42.921 112.762 42.9543C112.646 42.9875 112.548 43.0359 112.465 43.0998C112.386 43.1637 112.323 43.243 112.277 43.3375C112.233 43.4296 112.211 43.5356 112.211 43.6558C112.211 43.817 112.25 43.9549 112.327 44.0698C112.404 44.1824 112.504 44.2821 112.627 44.369C112.753 44.4559 112.895 44.5339 113.054 44.6028C113.216 44.6692 113.38 44.7383 113.546 44.8098C113.716 44.8789 113.88 44.9543 114.039 45.0362C114.201 45.1179 114.343 45.215 114.466 45.3275C114.592 45.4401 114.693 45.5731 114.77 45.7262C114.847 45.8772 114.885 46.0586 114.885 46.2709C114.885 46.5085 114.835 46.7321 114.735 46.9417C114.635 47.1514 114.493 47.3354 114.308 47.4938C114.126 47.6498 113.907 47.7738 113.65 47.8657C113.394 47.9552 113.108 48 112.792 48C112.664 48 112.529 47.9911 112.388 47.973C112.247 47.9578 112.104 47.9348 111.958 47.9042C111.811 47.8736 111.667 47.8351 111.523 47.789C111.379 47.7432 111.241 47.6906 111.107 47.632L111.261 46.8805L111.338 46.842C111.61 46.9904 111.876 47.1079 112.135 47.1948C112.394 47.2817 112.644 47.3252 112.885 47.3252Z" fill="#06235B"/>
</svg>
