<svg width="126" height="36" viewBox="0 0 126 36" fill="none" xmlns="http://www.w3.org/2000/svg">
  <path d="M43.8346 13.377H32.1625C32.1625 13.377 31.9328 15.4519 31.9147 16.7869C31.8924 18.4285 31.8531 19.3712 32.1625 20.9836C32.5426 22.9649 32.9262 24.089 33.9352 25.8361C35.0156 27.7069 35.9244 28.598 37.5395 30.0328C39.1962 31.5045 40.2609 32.2259 42.2608 33.1803C44.2931 34.1501 45.5395 34.4918 47.769 34.8852C52.8208 35.7767 77.1461 35.1475 77.1461 35.1475V13.377H54.5887L48.4248 20.9836H66.392V26.0983C60.2972 26.0983 50.6543 26.0983 50.6543 26.0983C50.6543 26.0983 48.8797 25.9369 47.9002 25.5738C46.8459 25.1829 46.3038 24.9424 45.4084 24.2623C44.7444 23.758 44.4706 23.352 43.9658 22.6885C43.2286 21.7197 42.934 20.9881 42.6543 19.8033C42.4178 18.8014 42.4308 18.2056 42.5231 17.1803C42.5989 16.339 42.7618 15.8768 43.0477 15.082C43.296 14.3919 43.8346 13.377 43.8346 13.377Z" fill="url(#paint0_linear_5_64)"/>
  <path d="M77.1461 35.1475H112.556C112.556 35.1475 115.584 34.9578 117.408 34.3606C118.976 33.8476 119.9 33.5251 121.212 32.5246C122.51 31.5337 123.181 30.8095 123.966 29.377C124.784 27.8839 125.086 26.9687 125.277 25.3115C125.454 23.7817 125.402 22.8119 125.015 21.377C124.752 20.403 124.505 19.8689 123.966 19.0164C123.152 17.7311 122.459 17.1332 121.212 16.2623C119.877 15.3303 118.979 14.9829 117.408 14.5574C115.573 14.0604 112.556 14.1639 112.556 14.1639H91.5723C91.5723 14.1639 90.8963 14.0994 90.5231 13.9016C90.2333 13.7481 89.8674 13.377 89.8674 13.377H78.7198C78.7198 13.377 79.023 14.6926 79.3756 15.4754C79.7724 16.3565 80.059 16.8393 80.687 17.5738C81.6391 18.687 82.4054 19.1244 83.7034 19.8033C84.9521 20.4564 85.7317 20.706 87.1133 20.9836C88.1725 21.1964 89.8674 21.2459 89.8674 21.2459H112.556C112.556 21.2459 113.664 21.5277 114.13 22.0328C114.581 22.5222 114.751 22.9416 114.785 23.6065C114.825 24.3669 114.646 24.8833 114.13 25.4426C113.663 25.9474 112.556 26.2295 112.556 26.2295H84.228L77.1461 35.1475Z" fill="url(#paint1_linear_5_64)"/>
  <path d="M16.9494 9.04917V34.8852H27.8346V9.04917H117.146L123.966 0H7.63792L0.687103 9.04917H16.9494Z" fill="url(#paint2_linear_5_64)"/>
  <defs>
    <linearGradient id="paint0_linear_5_64" x1="0.687103" y1="17.6815" x2="125.374" y2="17.6815" gradientUnits="userSpaceOnUse">
      <stop stop-color="#5751E1"/>
      <stop offset="1" stop-color="#06235B"/>
    </linearGradient>
    <linearGradient id="paint1_linear_5_64" x1="0.687103" y1="17.6815" x2="125.374" y2="17.6815" gradientUnits="userSpaceOnUse">
      <stop stop-color="#5751E1"/>
      <stop offset="1" stop-color="#06235B"/>
    </linearGradient>
    <linearGradient id="paint2_linear_5_64" x1="0.687103" y1="17.6815" x2="125.374" y2="17.6815" gradientUnits="userSpaceOnUse">
      <stop stop-color="#5751E1"/>
      <stop offset="1" stop-color="#06235B"/>
    </linearGradient>
  </defs>
</svg>
